<svg xmlns="http://www.w3.org/2000/svg" width="960" height="154" viewBox="0 0 960 154" font-family="-apple-system, BlinkMacSystemFont, Segoe UI, Helvetica, Arial, sans-serif" role="img" aria-label="Most used languages across 26 public repositories: Python 49.6 percent, C# 32.6 percent, JavaScript 13.6 percent, Dart 1.3 percent, CSS 1.1 percent, C 0.8 percent, HTML 0.5 percent, Kotlin 0.1 percent, Other 0.2 percent">
  <text x="16" y="28" fill="#e6edf3" font-size="14" font-weight="600">Most used languages</text>
  <text x="16" y="45" fill="#8b949e" font-size="11">across 26 public repositories</text>
  <clipPath id="round"><rect x="16" y="56" width="928" height="8" rx="4"/></clipPath>
  <g clip-path="url(#round)"><rect x="16.00" y="56" width="458.28" height="8" fill="#3987e5"/><rect x="476.28" y="56" width="300.95" height="8" fill="#d95926"/><rect x="779.23" y="56" width="124.50" height="8" fill="#199e70"/><rect x="905.73" y="56" width="10.04" height="8" fill="#c98500"/><rect x="917.78" y="56" width="8.57" height="8" fill="#d55181"/><rect x="928.35" y="56" width="5.62" height="8" fill="#008300"/><rect x="935.96" y="56" width="2.66" height="8" fill="#9085e9"/><rect x="940.62" y="56" width="1.36" height="8" fill="#e66767"/><rect x="941.98" y="56" width="2.02" height="8" fill="#8b949e"/></g>
  <circle cx="21" cy="84" r="4.5" fill="#3987e5"/><text x="33" y="88" fill="#e6edf3" font-size="12">Python</text><text x="285.3333333333333" y="88" fill="#8b949e" font-size="12">49.6%</text><circle cx="330.3333333333333" cy="84" r="4.5" fill="#d95926"/><text x="342.3333333333333" y="88" fill="#e6edf3" font-size="12">C#</text><text x="594.6666666666666" y="88" fill="#8b949e" font-size="12">32.6%</text><circle cx="639.6666666666666" cy="84" r="4.5" fill="#199e70"/><text x="651.6666666666666" y="88" fill="#e6edf3" font-size="12">JavaScript</text><text x="904" y="88" fill="#8b949e" font-size="12">13.6%</text><circle cx="21" cy="104" r="4.5" fill="#c98500"/><text x="33" y="108" fill="#e6edf3" font-size="12">Dart</text><text x="285.3333333333333" y="108" fill="#8b949e" font-size="12">1.3%</text><circle cx="330.3333333333333" cy="104" r="4.5" fill="#d55181"/><text x="342.3333333333333" y="108" fill="#e6edf3" font-size="12">CSS</text><text x="594.6666666666666" y="108" fill="#8b949e" font-size="12">1.1%</text><circle cx="639.6666666666666" cy="104" r="4.5" fill="#008300"/><text x="651.6666666666666" y="108" fill="#e6edf3" font-size="12">C</text><text x="904" y="108" fill="#8b949e" font-size="12">0.8%</text><circle cx="21" cy="124" r="4.5" fill="#9085e9"/><text x="33" y="128" fill="#e6edf3" font-size="12">HTML</text><text x="285.3333333333333" y="128" fill="#8b949e" font-size="12">0.5%</text><circle cx="330.3333333333333" cy="124" r="4.5" fill="#e66767"/><text x="342.3333333333333" y="128" fill="#e6edf3" font-size="12">Kotlin</text><text x="594.6666666666666" y="128" fill="#8b949e" font-size="12">0.1%</text><circle cx="639.6666666666666" cy="124" r="4.5" fill="#8b949e"/><text x="651.6666666666666" y="128" fill="#e6edf3" font-size="12">Other</text><text x="904" y="128" fill="#8b949e" font-size="12">0.2%</text>
</svg>
